<svg xmlns="http://www.w3.org/2000/svg" viewBox="0 0 512 512">
  <defs>
    <linearGradient id="g" x1="0" y1="0" x2="1" y2="1">
      <stop offset="0" stop-color="#f59e0b"/>
      <stop offset="1" stop-color="#a855f7"/>
    </linearGradient>
    <filter id="s" x="-20%" y="-20%" width="140%" height="140%">
      <feDropShadow dx="0" dy="10" stdDeviation="18" flood-color="#000" flood-opacity="0.35"/>
    </filter>
  </defs>

  <rect x="48" y="48" width="416" height="416" rx="96" fill="#0a0a0b"/>
  <rect x="72" y="72" width="368" height="368" rx="84" fill="rgba(255,255,255,0.04)"/>

  <g filter="url(#s)">
    <path fill="url(#g)" d="M176 176h160c26.51 0 48 21.49 48 48v96c0 26.51-21.49 48-48 48H176c-26.51 0-48-21.49-48-48v-96c0-26.51 21.49-48 48-48zm0 40c-4.418 0-8 3.582-8 8v96c0 4.418 3.582 8 8 8h160c4.418 0 8-3.582 8-8v-96c0-4.418-3.582-8-8-8H176z"/>
    <path fill="#ffffff" fill-opacity="0.92" d="M206 248h28v88h-28v-88zm72 0h28v88h-28v-88zm-44 0h24v88h-24v-88z"/>
  </g>

  <circle cx="396" cy="124" r="20" fill="#f59e0b"/>
</svg>
